<svg width="30" height="32" viewBox="0 0 30 32" fill="none" xmlns="http://www.w3.org/2000/svg">
<path d="M17.886 32H12.114C11.7292 32 11.3958 31.8667 11.1136 31.6C10.8314 31.3333 10.6646 31 10.6133 30.6L10.1516 26.88C9.8181 26.7467 9.5041 26.5867 9.20961 26.4C8.91409 26.2133 8.62523 26.0133 8.34305 25.8L4.99534 27.24C4.63619 27.3733 4.27705 27.3867 3.91791 27.28C3.55877 27.1733 3.27659 26.9467 3.07136 26.6L0.223881 21.44C0.0186567 21.0933 -0.0454757 20.72 0.0314832 20.32C0.108442 19.92 0.30084 19.6 0.608675 19.36L3.49464 17.08C3.46898 16.8933 3.45616 16.7131 3.45616 16.5392V15.4592C3.45616 15.2864 3.46898 15.1067 3.49464 14.92L0.608675 12.64C0.30084 12.4 0.108442 12.08 0.0314832 11.68C-0.0454757 11.28 0.0186567 10.9067 0.223881 10.56L3.07136 5.4C3.25093 5.02667 3.52645 4.79307 3.8979 4.6992C4.27038 4.6064 4.63619 4.62667 4.99534 4.76L8.34305 6.2C8.62523 5.98667 8.92024 5.78667 9.22808 5.6C9.53591 5.41333 9.84375 5.25333 10.1516 5.12L10.6133 1.4C10.6646 1 10.8314 0.666667 11.1136 0.4C11.3958 0.133333 11.7292 0 12.114 0H17.886C18.2708 0 18.6042 0.133333 18.8864 0.4C19.1686 0.666667 19.3354 1 19.3867 1.4L19.8484 5.12C20.1819 5.25333 20.4964 5.41333 20.7919 5.6C21.0864 5.78667 21.3748 5.98667 21.6569 6.2L25.0047 4.76C25.3638 4.62667 25.7229 4.61333 26.0821 4.72C26.4412 4.82667 26.7234 5.05333 26.9286 5.4L29.7761 10.56C29.9813 10.9067 30.0455 11.28 29.9685 11.68C29.8916 12.08 29.6992 12.4 29.3913 12.64L26.5054 14.92C26.531 15.1067 26.5438 15.2864 26.5438 15.4592V16.5392C26.5438 16.7131 26.5182 16.8933 26.4669 17.08L29.3528 19.36C29.6607 19.6 29.8531 19.92 29.93 20.32C30.007 20.72 29.9429 21.0933 29.7376 21.44L26.8902 26.56C26.6849 26.9067 26.3966 27.1403 26.0251 27.2608C25.6527 27.3803 25.2868 27.3733 24.9277 27.24L21.6569 25.8C21.3748 26.0133 21.0798 26.2133 20.7719 26.4C20.4641 26.5867 20.1562 26.7467 19.8484 26.88L19.3867 30.6C19.3354 31 19.1686 31.3333 18.8864 31.6C18.6042 31.8667 18.2708 32 17.886 32ZM15.077 21.6C16.5648 21.6 17.8347 21.0533 18.8864 19.96C19.9382 18.8667 20.4641 17.5467 20.4641 16C20.4641 14.4533 19.9382 13.1333 18.8864 12.04C17.8347 10.9467 16.5648 10.4 15.077 10.4C13.5634 10.4 12.2869 10.9467 11.2475 12.04C10.209 13.1333 9.68983 14.4533 9.68983 16C9.68983 17.5467 10.209 18.8667 11.2475 19.96C12.2869 21.0533 13.5634 21.6 15.077 21.6ZM15.077 18.4C14.4356 18.4 13.8908 18.1664 13.4424 17.6992C12.9929 17.2331 12.7682 16.6667 12.7682 16C12.7682 15.3333 12.9929 14.7669 13.4424 14.3008C13.8908 13.8336 14.4356 13.6 15.077 13.6C15.7183 13.6 16.2637 13.8336 16.7131 14.3008C17.1615 14.7669 17.3857 15.3333 17.3857 16C17.3857 16.6667 17.1615 17.2331 16.7131 17.6992C16.2637 18.1664 15.7183 18.4 15.077 18.4ZM13.4608 28.8H16.5007L17.0394 24.56C17.8347 24.3467 18.5724 24.0331 19.2528 23.6192C19.932 23.2064 20.5539 22.7067 21.1182 22.12L24.9277 23.76L26.4284 21.04L23.1192 18.44C23.2474 18.0667 23.3372 17.6731 23.3885 17.2592C23.4398 16.8464 23.4655 16.4267 23.4655 16C23.4655 15.5733 23.4398 15.1531 23.3885 14.7392C23.3372 14.3264 23.2474 13.9333 23.1192 13.56L26.4284 10.96L24.9277 8.24L21.1182 9.92C20.5539 9.30667 19.932 8.79307 19.2528 8.3792C18.5724 7.9664 17.8347 7.65333 17.0394 7.44L16.5392 3.2H13.4993L12.9606 7.44C12.1653 7.65333 11.4281 7.9664 10.7488 8.3792C10.0685 8.79307 9.44613 9.29333 8.88176 9.88L5.0723 8.24L3.57159 10.96L6.88083 13.52C6.75256 13.92 6.66278 14.32 6.61147 14.72C6.56017 15.12 6.53451 15.5467 6.53451 16C6.53451 16.4267 6.56017 16.84 6.61147 17.24C6.66278 17.64 6.75256 18.04 6.88083 18.44L3.57159 21.04L5.0723 23.76L8.88176 22.08C9.44613 22.6933 10.0685 23.2064 10.7488 23.6192C11.4281 24.0331 12.1653 24.3467 12.9606 24.56L13.4608 28.8Z" fill="black"/>
</svg>
